<mxfile host="app.diagrams.net" agent="Mozilla/5.0 (Windows NT 10.0; Win64; x64) AppleWebKit/537.36 (KHTML, like Gecko) Chrome/134.0.0.0 Safari/537.36" version="26.1.1">
  <diagram name="Страница — 1" id="jor8QDz_xb9i7FEpWLWG">
    <mxGraphModel dx="1845" dy="580" grid="1" gridSize="10" guides="1" tooltips="1" connect="1" arrows="1" fold="1" page="1" pageScale="1" pageWidth="827" pageHeight="1169" background="#ffffff" math="0" shadow="0">
      <root>
        <mxCell id="0" />
        <mxCell id="1" parent="0" />
        <mxCell id="L2TCPMNaBKkvQc-5fne5-50" style="edgeStyle=orthogonalEdgeStyle;rounded=0;orthogonalLoop=1;jettySize=auto;html=1;exitX=0.5;exitY=1;exitDx=0;exitDy=0;" edge="1" parent="1" source="L2TCPMNaBKkvQc-5fne5-29">
          <mxGeometry relative="1" as="geometry">
            <mxPoint x="305" y="630" as="targetPoint" />
          </mxGeometry>
        </mxCell>
        <mxCell id="L2TCPMNaBKkvQc-5fne5-29" value="" style="rounded=0;whiteSpace=wrap;html=1;align=left;" vertex="1" parent="1">
          <mxGeometry x="-190" y="315" width="990" height="235" as="geometry" />
        </mxCell>
        <mxCell id="zePrVZ3Qa63pMSRUAGxY-57" style="edgeStyle=orthogonalEdgeStyle;rounded=0;orthogonalLoop=1;jettySize=auto;html=1;exitX=0;exitY=0.5;exitDx=0;exitDy=0;entryX=0.5;entryY=0;entryDx=0;entryDy=0;" parent="1" source="zePrVZ3Qa63pMSRUAGxY-1" target="zePrVZ3Qa63pMSRUAGxY-3" edge="1">
          <mxGeometry relative="1" as="geometry">
            <Array as="points">
              <mxPoint x="474" y="25" />
            </Array>
          </mxGeometry>
        </mxCell>
        <mxCell id="zePrVZ3Qa63pMSRUAGxY-64" style="edgeStyle=orthogonalEdgeStyle;rounded=0;orthogonalLoop=1;jettySize=auto;html=1;exitX=0.5;exitY=1;exitDx=0;exitDy=0;entryX=1;entryY=0.25;entryDx=0;entryDy=0;" parent="1" source="zePrVZ3Qa63pMSRUAGxY-1" target="zePrVZ3Qa63pMSRUAGxY-5" edge="1">
          <mxGeometry relative="1" as="geometry" />
        </mxCell>
        <mxCell id="L2TCPMNaBKkvQc-5fne5-8" value="Уже авторизован" style="edgeStyle=orthogonalEdgeStyle;rounded=0;orthogonalLoop=1;jettySize=auto;html=1;exitX=1;exitY=0.5;exitDx=0;exitDy=0;entryX=0.5;entryY=0;entryDx=0;entryDy=0;" edge="1" parent="1" source="zePrVZ3Qa63pMSRUAGxY-1" target="L2TCPMNaBKkvQc-5fne5-2">
          <mxGeometry relative="1" as="geometry" />
        </mxCell>
        <mxCell id="zePrVZ3Qa63pMSRUAGxY-1" value="" style="ellipse;fillColor=strokeColor;html=1;" parent="1" vertex="1">
          <mxGeometry x="399" y="10" width="30" height="30" as="geometry" />
        </mxCell>
        <mxCell id="zePrVZ3Qa63pMSRUAGxY-66" style="edgeStyle=orthogonalEdgeStyle;rounded=0;orthogonalLoop=1;jettySize=auto;html=1;exitX=0;exitY=0.5;exitDx=0;exitDy=0;entryX=0.75;entryY=1;entryDx=0;entryDy=0;" parent="1" source="zePrVZ3Qa63pMSRUAGxY-3" target="zePrVZ3Qa63pMSRUAGxY-5" edge="1">
          <mxGeometry relative="1" as="geometry">
            <Array as="points">
              <mxPoint x="310" y="219.92" />
            </Array>
          </mxGeometry>
        </mxCell>
        <mxCell id="zePrVZ3Qa63pMSRUAGxY-3" value="Главная страница" style="rounded=1;whiteSpace=wrap;html=1;" parent="1" vertex="1">
          <mxGeometry x="414" y="189.92" width="120" height="60" as="geometry" />
        </mxCell>
        <mxCell id="zePrVZ3Qa63pMSRUAGxY-65" style="edgeStyle=orthogonalEdgeStyle;rounded=0;orthogonalLoop=1;jettySize=auto;html=1;exitX=0;exitY=0.5;exitDx=0;exitDy=0;" parent="1" source="zePrVZ3Qa63pMSRUAGxY-5" target="zePrVZ3Qa63pMSRUAGxY-13" edge="1">
          <mxGeometry relative="1" as="geometry" />
        </mxCell>
        <mxCell id="L2TCPMNaBKkvQc-5fne5-54" style="edgeStyle=orthogonalEdgeStyle;rounded=0;orthogonalLoop=1;jettySize=auto;html=1;exitX=0.5;exitY=1;exitDx=0;exitDy=0;entryX=0;entryY=0.25;entryDx=0;entryDy=0;" edge="1" parent="1" source="zePrVZ3Qa63pMSRUAGxY-5" target="L2TCPMNaBKkvQc-5fne5-2">
          <mxGeometry relative="1" as="geometry" />
        </mxCell>
        <mxCell id="zePrVZ3Qa63pMSRUAGxY-5" value="Страница авторизации" style="rounded=1;whiteSpace=wrap;html=1;" parent="1" vertex="1">
          <mxGeometry x="220" y="114.91999999999999" width="120" height="60" as="geometry" />
        </mxCell>
        <mxCell id="zePrVZ3Qa63pMSRUAGxY-132" style="edgeStyle=orthogonalEdgeStyle;rounded=0;orthogonalLoop=1;jettySize=auto;html=1;exitX=0.5;exitY=0;exitDx=0;exitDy=0;entryX=0.5;entryY=0;entryDx=0;entryDy=0;" parent="1" source="zePrVZ3Qa63pMSRUAGxY-13" target="zePrVZ3Qa63pMSRUAGxY-5" edge="1">
          <mxGeometry relative="1" as="geometry">
            <Array as="points">
              <mxPoint x="-10" y="39.91999999999999" />
              <mxPoint x="280" y="39.91999999999999" />
            </Array>
          </mxGeometry>
        </mxCell>
        <mxCell id="L2TCPMNaBKkvQc-5fne5-55" style="edgeStyle=orthogonalEdgeStyle;rounded=0;orthogonalLoop=1;jettySize=auto;html=1;exitX=0.5;exitY=1;exitDx=0;exitDy=0;entryX=0;entryY=0.25;entryDx=0;entryDy=0;" edge="1" parent="1" source="zePrVZ3Qa63pMSRUAGxY-13" target="L2TCPMNaBKkvQc-5fne5-2">
          <mxGeometry relative="1" as="geometry" />
        </mxCell>
        <mxCell id="zePrVZ3Qa63pMSRUAGxY-13" value="Страница регистрации" style="rounded=1;whiteSpace=wrap;html=1;" parent="1" vertex="1">
          <mxGeometry x="-70" y="114.91999999999999" width="120" height="60" as="geometry" />
        </mxCell>
        <mxCell id="zePrVZ3Qa63pMSRUAGxY-67" style="edgeStyle=orthogonalEdgeStyle;rounded=0;orthogonalLoop=1;jettySize=auto;html=1;exitX=0;exitY=0.75;exitDx=0;exitDy=0;entryX=0.25;entryY=1;entryDx=0;entryDy=0;" parent="1" source="zePrVZ3Qa63pMSRUAGxY-13" target="zePrVZ3Qa63pMSRUAGxY-13" edge="1">
          <mxGeometry relative="1" as="geometry">
            <mxPoint x="-90" y="154.92" as="sourcePoint" />
            <mxPoint x="-60" y="184.92" as="targetPoint" />
            <Array as="points">
              <mxPoint x="-130" y="154.92" />
              <mxPoint x="-130" y="229.92" />
              <mxPoint x="-40" y="229.92" />
            </Array>
          </mxGeometry>
        </mxCell>
        <mxCell id="zePrVZ3Qa63pMSRUAGxY-71" value="Ошибка регистрации" style="edgeLabel;html=1;align=center;verticalAlign=middle;resizable=0;points=[];" parent="zePrVZ3Qa63pMSRUAGxY-67" vertex="1" connectable="0">
          <mxGeometry x="0.1589" y="4" relative="1" as="geometry">
            <mxPoint y="19" as="offset" />
          </mxGeometry>
        </mxCell>
        <mxCell id="zePrVZ3Qa63pMSRUAGxY-68" style="edgeStyle=orthogonalEdgeStyle;rounded=0;orthogonalLoop=1;jettySize=auto;html=1;exitX=0;exitY=0.75;exitDx=0;exitDy=0;entryX=0.25;entryY=1;entryDx=0;entryDy=0;" parent="1" source="zePrVZ3Qa63pMSRUAGxY-5" target="zePrVZ3Qa63pMSRUAGxY-5" edge="1">
          <mxGeometry relative="1" as="geometry">
            <Array as="points">
              <mxPoint x="150" y="154.92" />
              <mxPoint x="150" y="229.92" />
              <mxPoint x="250" y="229.92" />
            </Array>
          </mxGeometry>
        </mxCell>
        <mxCell id="zePrVZ3Qa63pMSRUAGxY-69" value="Ошибка авторизации" style="edgeLabel;html=1;align=center;verticalAlign=middle;resizable=0;points=[];" parent="zePrVZ3Qa63pMSRUAGxY-68" vertex="1" connectable="0">
          <mxGeometry x="0.1259" y="-1" relative="1" as="geometry">
            <mxPoint x="13" y="9" as="offset" />
          </mxGeometry>
        </mxCell>
        <mxCell id="zePrVZ3Qa63pMSRUAGxY-85" value="Первый заход" style="text;html=1;align=center;verticalAlign=middle;resizable=0;points=[];autosize=1;strokeColor=none;fillColor=none;" parent="1" vertex="1">
          <mxGeometry x="314" y="60" width="100" height="30" as="geometry" />
        </mxCell>
        <mxCell id="L2TCPMNaBKkvQc-5fne5-21" style="edgeStyle=orthogonalEdgeStyle;rounded=0;orthogonalLoop=1;jettySize=auto;html=1;exitX=0.5;exitY=1;exitDx=0;exitDy=0;entryX=0.5;entryY=0;entryDx=0;entryDy=0;" edge="1" parent="1" source="L2TCPMNaBKkvQc-5fne5-2" target="L2TCPMNaBKkvQc-5fne5-11">
          <mxGeometry relative="1" as="geometry" />
        </mxCell>
        <mxCell id="L2TCPMNaBKkvQc-5fne5-44" value="[Администратор]&lt;div&gt;[Оператор]&lt;/div&gt;" style="edgeLabel;html=1;align=center;verticalAlign=middle;resizable=0;points=[];" vertex="1" connectable="0" parent="L2TCPMNaBKkvQc-5fne5-21">
          <mxGeometry x="0.8224" y="2" relative="1" as="geometry">
            <mxPoint x="-2" y="-11" as="offset" />
          </mxGeometry>
        </mxCell>
        <mxCell id="L2TCPMNaBKkvQc-5fne5-24" style="edgeStyle=orthogonalEdgeStyle;rounded=0;orthogonalLoop=1;jettySize=auto;html=1;exitX=0.5;exitY=1;exitDx=0;exitDy=0;entryX=0.5;entryY=0;entryDx=0;entryDy=0;" edge="1" parent="1" source="L2TCPMNaBKkvQc-5fne5-2" target="L2TCPMNaBKkvQc-5fne5-14">
          <mxGeometry relative="1" as="geometry" />
        </mxCell>
        <mxCell id="L2TCPMNaBKkvQc-5fne5-39" style="edgeStyle=orthogonalEdgeStyle;rounded=0;orthogonalLoop=1;jettySize=auto;html=1;exitX=0.5;exitY=1;exitDx=0;exitDy=0;entryX=0.5;entryY=0;entryDx=0;entryDy=0;" edge="1" parent="1" source="L2TCPMNaBKkvQc-5fne5-2" target="L2TCPMNaBKkvQc-5fne5-16">
          <mxGeometry relative="1" as="geometry" />
        </mxCell>
        <mxCell id="L2TCPMNaBKkvQc-5fne5-42" value="[Администратор]&lt;div&gt;[Авториз. Пользователь]&lt;/div&gt;" style="edgeLabel;html=1;align=center;verticalAlign=middle;resizable=0;points=[];" vertex="1" connectable="0" parent="L2TCPMNaBKkvQc-5fne5-39">
          <mxGeometry x="0.9118" y="1" relative="1" as="geometry">
            <mxPoint x="-1" y="-10" as="offset" />
          </mxGeometry>
        </mxCell>
        <mxCell id="L2TCPMNaBKkvQc-5fne5-40" style="edgeStyle=orthogonalEdgeStyle;rounded=0;orthogonalLoop=1;jettySize=auto;html=1;exitX=0.5;exitY=1;exitDx=0;exitDy=0;" edge="1" parent="1" source="L2TCPMNaBKkvQc-5fne5-2" target="L2TCPMNaBKkvQc-5fne5-38">
          <mxGeometry relative="1" as="geometry" />
        </mxCell>
        <mxCell id="L2TCPMNaBKkvQc-5fne5-41" value="[Администратор]" style="edgeStyle=orthogonalEdgeStyle;rounded=0;orthogonalLoop=1;jettySize=auto;html=1;exitX=0.5;exitY=1;exitDx=0;exitDy=0;entryX=0.5;entryY=0;entryDx=0;entryDy=0;" edge="1" parent="1" source="L2TCPMNaBKkvQc-5fne5-2" target="L2TCPMNaBKkvQc-5fne5-15">
          <mxGeometry x="0.8257" relative="1" as="geometry">
            <mxPoint as="offset" />
          </mxGeometry>
        </mxCell>
        <mxCell id="L2TCPMNaBKkvQc-5fne5-45" value="" style="edgeStyle=orthogonalEdgeStyle;rounded=0;orthogonalLoop=1;jettySize=auto;html=1;exitX=0.5;exitY=1;exitDx=0;exitDy=0;entryX=0.5;entryY=0;entryDx=0;entryDy=0;" edge="1" parent="1" source="L2TCPMNaBKkvQc-5fne5-2" target="L2TCPMNaBKkvQc-5fne5-12">
          <mxGeometry x="0.8182" relative="1" as="geometry">
            <mxPoint as="offset" />
          </mxGeometry>
        </mxCell>
        <mxCell id="L2TCPMNaBKkvQc-5fne5-46" value="[Администратор]&lt;div&gt;[Оператор]&lt;/div&gt;" style="edgeLabel;html=1;align=center;verticalAlign=middle;resizable=0;points=[];" vertex="1" connectable="0" parent="L2TCPMNaBKkvQc-5fne5-45">
          <mxGeometry x="0.7642" relative="1" as="geometry">
            <mxPoint y="-17" as="offset" />
          </mxGeometry>
        </mxCell>
        <mxCell id="L2TCPMNaBKkvQc-5fne5-49" value="[Администратор]&lt;div&gt;[Оператор]&lt;/div&gt;" style="edgeStyle=orthogonalEdgeStyle;rounded=0;orthogonalLoop=1;jettySize=auto;html=1;exitX=0.5;exitY=1;exitDx=0;exitDy=0;entryX=0.5;entryY=0;entryDx=0;entryDy=0;" edge="1" parent="1" source="L2TCPMNaBKkvQc-5fne5-2" target="L2TCPMNaBKkvQc-5fne5-13">
          <mxGeometry x="0.7591" relative="1" as="geometry">
            <mxPoint as="offset" />
          </mxGeometry>
        </mxCell>
        <mxCell id="L2TCPMNaBKkvQc-5fne5-57" style="edgeStyle=orthogonalEdgeStyle;rounded=0;orthogonalLoop=1;jettySize=auto;html=1;exitX=0.25;exitY=0;exitDx=0;exitDy=0;startArrow=classic;startFill=1;" edge="1" parent="1">
          <mxGeometry relative="1" as="geometry">
            <mxPoint x="520" y="249.92" as="targetPoint" />
            <mxPoint x="520" y="289.91999999999996" as="sourcePoint" />
            <Array as="points">
              <mxPoint x="520" y="269.92" />
              <mxPoint x="520" y="269.92" />
            </Array>
          </mxGeometry>
        </mxCell>
        <mxCell id="L2TCPMNaBKkvQc-5fne5-2" value="Страница рабочей области" style="rounded=1;whiteSpace=wrap;html=1;" vertex="1" parent="1">
          <mxGeometry x="500" y="289.99999999999994" width="120" height="60" as="geometry" />
        </mxCell>
        <mxCell id="L2TCPMNaBKkvQc-5fne5-11" value="CRM" style="rounded=1;whiteSpace=wrap;html=1;" vertex="1" parent="1">
          <mxGeometry x="380" y="451.49999999999994" width="120" height="60" as="geometry" />
        </mxCell>
        <mxCell id="L2TCPMNaBKkvQc-5fne5-12" value="Диалоги" style="rounded=1;whiteSpace=wrap;html=1;" vertex="1" parent="1">
          <mxGeometry x="520" y="451.49999999999994" width="120" height="60" as="geometry" />
        </mxCell>
        <mxCell id="L2TCPMNaBKkvQc-5fne5-13" value="Статистика" style="rounded=1;whiteSpace=wrap;html=1;" vertex="1" parent="1">
          <mxGeometry x="660" y="451.49999999999994" width="120" height="60" as="geometry" />
        </mxCell>
        <mxCell id="L2TCPMNaBKkvQc-5fne5-14" value="Личный кабинет" style="rounded=1;whiteSpace=wrap;html=1;" vertex="1" parent="1">
          <mxGeometry x="-180" y="451.49999999999994" width="120" height="60" as="geometry" />
        </mxCell>
        <mxCell id="L2TCPMNaBKkvQc-5fne5-15" value="Страница интеграций" style="rounded=1;whiteSpace=wrap;html=1;" vertex="1" parent="1">
          <mxGeometry x="240" y="451.5" width="120" height="60" as="geometry" />
        </mxCell>
        <mxCell id="L2TCPMNaBKkvQc-5fne5-16" value="Страница подписки" style="rounded=1;whiteSpace=wrap;html=1;" vertex="1" parent="1">
          <mxGeometry x="100" y="451.5" width="120" height="60" as="geometry" />
        </mxCell>
        <mxCell id="L2TCPMNaBKkvQc-5fne5-32" value="Рабочая область" style="text;html=1;align=center;verticalAlign=middle;whiteSpace=wrap;rounded=0;" vertex="1" parent="1">
          <mxGeometry x="-190" y="330" width="60" height="30" as="geometry" />
        </mxCell>
        <mxCell id="L2TCPMNaBKkvQc-5fne5-38" value="Страница компании" style="rounded=1;whiteSpace=wrap;html=1;" vertex="1" parent="1">
          <mxGeometry x="-40" y="451.5" width="120" height="60" as="geometry" />
        </mxCell>
        <mxCell id="L2TCPMNaBKkvQc-5fne5-53" value="" style="ellipse;html=1;shape=endState;fillColor=#000000;strokeColor=#060606;" vertex="1" parent="1">
          <mxGeometry x="290" y="630" width="30" height="30" as="geometry" />
        </mxCell>
      </root>
    </mxGraphModel>
  </diagram>
</mxfile>
